<svg width="195" height="46" viewBox="0 0 195 46" fill="none" xmlns="http://www.w3.org/2000/svg">
<path d="M25.2083 9.58337L9.16663 23L25.2083 36.4167" stroke="#780116" stroke-width="2" stroke-linecap="round" stroke-linejoin="round"/>
<path d="M9.16663 23H45.8333" stroke="#780116" stroke-width="2" stroke-linecap="round" stroke-linejoin="round"/>
<path d="M76.6191 29.4277L83.123 9.40625H88.0098L78.7988 35H74.4922L65.3164 9.40625H70.1855L76.6191 29.4277ZM111.09 22.8711C111.09 25.3789 110.656 27.582 109.789 29.4805C108.922 31.3672 107.68 32.8203 106.062 33.8398C104.457 34.8477 102.605 35.3516 100.508 35.3516C98.4336 35.3516 96.582 34.8477 94.9531 33.8398C93.3359 32.8203 92.082 31.373 91.1914 29.498C90.3125 27.623 89.8672 25.4609 89.8555 23.0117V21.5703C89.8555 19.0742 90.2949 16.8711 91.1738 14.9609C92.0645 13.0508 93.3125 11.5918 94.918 10.584C96.5352 9.56445 98.3867 9.05469 100.473 9.05469C102.559 9.05469 104.404 9.55859 106.01 10.5664C107.627 11.5625 108.875 13.0039 109.754 14.8906C110.633 16.7656 111.078 18.9512 111.09 21.4473V22.8711ZM106.643 21.5352C106.643 18.6992 106.104 16.5254 105.025 15.0137C103.959 13.502 102.441 12.7461 100.473 12.7461C98.5508 12.7461 97.0449 13.502 95.9551 15.0137C94.877 16.5137 94.3262 18.6406 94.3027 21.3945V22.8711C94.3027 25.6836 94.8477 27.8574 95.9375 29.3926C97.0391 30.9277 98.5625 31.6953 100.508 31.6953C102.477 31.6953 103.988 30.9453 105.043 29.4453C106.109 27.9453 106.643 25.7539 106.643 22.8711V21.5352ZM119.967 31.4492H131.586V35H115.52V9.40625H119.967V31.4492ZM149.867 12.9922H141.887V35H137.475V12.9922H129.564V9.40625H149.867V12.9922ZM165.459 29.041H155.545L153.471 35H148.848L158.516 9.40625H162.506L172.191 35H167.551L165.459 29.041ZM156.793 25.4551H164.211L160.502 14.8379L156.793 25.4551ZM184.514 25.1387H179.557V35H175.109V9.40625H184.109C187.062 9.40625 189.342 10.0684 190.947 11.3926C192.553 12.7168 193.355 14.6328 193.355 17.1406C193.355 18.8516 192.939 20.2871 192.107 21.4473C191.287 22.5957 190.139 23.4805 188.662 24.1016L194.41 34.7715V35H189.646L184.514 25.1387ZM179.557 21.5703H184.127C185.627 21.5703 186.799 21.1953 187.643 20.4453C188.486 19.6836 188.908 18.6465 188.908 17.334C188.908 15.9629 188.516 14.9023 187.73 14.1523C186.957 13.4023 185.797 13.0156 184.25 12.9922H179.557V21.5703Z" fill="#780116"/>
</svg>
